PathFileType	4	(X/Y/Z)	C:\Users\dbl\Desktop\LZH\BX\Trimmed_bx_y_5_1801.trc
DataRate	CameraRate	NumFrames	NumMarkers	Units	OrigDataRate	OrigDataStartFrame	OrigNumFrames
50.00	50.00	       4	43	mm	50.00	42	       330
Frame#	Time	Top.Head			R.Acromium			L.Acromium			Sternum			R.ASIS			L.ASIS			V.Sacral			R.Thigh.Upper			R.Thigh.Front			R.Thigh.Rear			R.Knee.Lat			R.Knee.Med			R.Shank.Upper			R.Shank.Front			R.Shank.Rear			R.Ankle.Lat			R.Midfoot.Lat			R.Toe.Lat			R.Toe.Tip			R.Toe.Med			R.Ankle.Med			R.Midfoot.Sup			R.Heel			L.Thigh.Upper			L.Thigh.Front			L.Thigh.Rear			L.Knee.Lat			L.Knee.Med			L.Shank.Upper			L.Shank.Front			L.Shank.Rear			L.Ankle.Lat			L.Midfoot.Lat			L.Toe.Lat			L.Toe.Tip			L.Toe.Med			L.Ankle.Med			L.Midfoot.Sup			L.Heel			origin1 front left			origin2 front right			origin 3 back right			origin 4 back leftt			
		X1	Y1	Z1	X2	Y2	Z2	X3	Y3	Z3	X4	Y4	Z4	X5	Y5	Z5	X6	Y6	Z6	X7	Y7	Z7	X8	Y8	Z8	X9	Y9	Z9	X10	Y10	Z10	X11	Y11	Z11	X12	Y12	Z12	X13	Y13	Z13	X14	Y14	Z14	X15	Y15	Z15	X16	Y16	Z16	X17	Y17	Z17	X18	Y18	Z18	X19	Y19	Z19	X20	Y20	Z20	X21	Y21	Z21	X22	Y22	Z22	X23	Y23	Z23	X24	Y24	Z24	X25	Y25	Z25	X26	Y26	Z26	X27	Y27	Z27	X28	Y28	Z28	X29	Y29	Z29	X30	Y30	Z30	X31	Y31	Z31	X32	Y32	Z32	X33	Y33	Z33	X34	Y34	Z34	X35	Y35	Z35	X36	Y36	Z36	X37	Y37	Z37	X38	Y38	Z38	X39	Y39	Z39	X40	Y40	Z40	X41	Y41	Z41	X42	Y42	Z42	X43	Y43	Z43	

42	0.820	-669.50641	284.59964	1839.26489	-639.60718	75.30463	1530.22144	-650.28937	465.60355	1511.44165	-548.90936	270.61996	1392.21899	-537.00757	150.52908	1058.18726	-552.12097	416.09143	1074.69836	-741.83167	262.31772	1015.11597	-563.22552	98.87759	892.68414	-521.35162	163.08798	844.15552	-614.41284	95.95222	746.37848	-641.62402	129.11328	603.71802	-629.30731	237.45998	561.97198	-680.66431	127.86234	540.73907	-596.85516	179.96393	544.26147	-720.47498	131.69415	474.51065	-685.73822	149.23061	214.32487	-613.75366	83.24772	167.61832	-568.97638	58.61440	164.74805	-491.36887	94.09169	162.19955	-529.47699	149.01529	165.96896	-630.41010	223.05408	218.70238	-589.79944	193.75873	168.91821	-715.12476	216.78017	169.34262	-583.81006	447.77228	876.07922	-516.79681	376.52924	836.39563	-607.99042	441.97311	748.14923	-644.19153	418.63074	624.73669	-617.86890	312.21786	577.47528	-654.50665	413.43735	562.64319	-605.39178	370.09567	539.83813	-708.04242	420.87286	512.59589	-678.72107	415.99579	212.63368	-582.54889	468.06412	165.75920	-542.25470	477.43991	159.60394	-481.55042	428.66025	163.86667	-523.92371	386.92590	177.73737	-642.86237	326.94885	207.66982	-594.18292	347.02042	168.85370	-732.40350	345.68289	164.24234	-443.47226	449.12167	147.03664	-450.36075	75.15597	144.92986	-806.16254	82.57005	142.70377	-799.88605	457.85931	145.12856	
43	0.840	-669.27979	284.59464	1839.29321	-639.62445	75.26147	1530.22205	-650.20569	465.52881	1511.41821	-547.44189	272.10678	1393.53760	-537.02521	150.47945	1058.17529	-552.01001	416.07626	1074.69604	-741.84662	262.29575	1015.15363	-563.22711	98.88005	892.64191	-521.36737	163.08824	844.11578	-614.41406	95.94313	746.33881	-641.70001	129.09138	603.69287	-629.37848	237.46625	561.94226	-680.69226	127.83978	540.74200	-596.89630	179.90675	544.24805	-720.38171	131.70850	474.52765	-685.73938	149.23471	214.31233	-613.72791	83.26051	167.61952	-568.93719	58.62890	164.76236	-491.35733	94.07317	162.20601	-529.47461	148.99039	165.96388	-630.41101	223.05414	218.70451	-589.85297	193.78015	168.96136	-715.16339	216.75774	169.31850	-583.80042	447.73294	876.10266	-516.81488	376.50406	836.39423	-607.99017	441.93137	748.17078	-644.22998	418.62704	624.72766	-617.92676	312.23441	577.46667	-654.55243	413.45480	562.67651	-605.40430	370.10736	539.85114	-708.03448	420.85510	512.56342	-678.72931	415.96335	212.62897	-582.54620	468.07080	165.75156	-542.24670	477.43622	159.58617	-481.52423	428.68158	163.88409	-523.92273	386.94241	177.72597	-642.89380	326.98660	207.62834	-594.18195	347.00333	168.83855	-732.39227	345.70227	164.24500	-443.46683	449.12494	147.03447	-450.41830	75.14320	144.90569	-806.10962	82.52541	142.75368	-799.89911	457.84262	145.10124	
44	0.860	-669.08789	284.56140	1839.32703	-639.63776	75.20195	1530.23547	-650.13922	465.45844	1511.40710	-545.23492	274.28036	1395.48242	-537.03607	150.39661	1058.12488	-551.94385	416.07700	1074.66846	-741.86755	262.26578	1015.20978	-563.22980	98.85718	892.60638	-521.38147	163.10594	844.06049	-614.42279	95.95041	746.31128	-641.82440	129.07639	603.68097	-629.46002	237.49585	561.96967	-680.73297	127.81720	540.75269	-596.94965	179.82727	544.19366	-720.33179	131.71191	474.54669	-685.74811	149.24303	214.30319	-613.70801	83.25691	167.62128	-568.86768	58.63492	164.79501	-491.35031	94.07295	162.19888	-529.48126	148.93988	165.95842	-630.40942	223.05261	218.69745	-589.91040	193.82106	168.99632	-715.21460	216.75800	169.31894	-583.78918	447.70178	876.09796	-516.81543	376.47934	836.40808	-608.00250	441.86816	748.17999	-644.25635	418.62518	624.72400	-617.99109	312.25290	577.48193	-654.60547	413.46600	562.69171	-605.41345	370.12415	539.85040	-708.05267	420.84012	512.53632	-678.73425	415.94397	212.62617	-582.54071	468.08185	165.74178	-542.23212	477.43347	159.54546	-481.51556	428.68887	163.88876	-523.91833	386.95868	177.70741	-642.92670	327.03751	207.55847	-594.13623	347.00610	168.83427	-732.38043	345.72232	164.25046	-443.46329	449.13898	147.02005	-450.45618	75.13383	144.87891	-806.11395	82.51517	142.76489	-799.91028	457.79147	145.11731	
45	0.880	-668.94031	284.51407	1839.35901	-639.63885	75.12503	1530.26038	-650.09216	465.41422	1511.40430	-543.04126	276.38245	1397.36731	-537.04016	150.28949	1058.06140	-551.89270	416.05624	1074.61267	-741.89465	262.23447	1015.27435	-563.23236	98.81635	892.58264	-521.39990	163.12825	844.00763	-614.44958	95.95421	746.29846	-641.97302	129.06981	603.68097	-629.52185	237.53482	562.04657	-680.79767	127.79166	540.77759	-597.02094	179.75865	544.12262	-720.33545	131.69870	474.56915	-685.75348	149.24728	214.29985	-613.70221	83.23423	167.61697	-568.79767	58.62743	164.83713	-491.34866	94.08727	162.17888	-529.48907	148.89342	165.95732	-630.40686	223.05032	218.68626	-589.93073	193.86809	169.00447	-715.26563	216.77559	169.34706	-583.78235	447.68060	876.08179	-516.79694	376.45557	836.40710	-608.01678	441.81259	748.18506	-644.25867	418.61673	624.72693	-618.03033	312.26443	577.51886	-654.65833	413.45126	562.68030	-605.40100	370.13055	539.83557	-708.10754	420.81992	512.51868	-678.74152	415.92868	212.61714	-582.54517	468.08551	165.74248	-542.21960	477.43643	159.49123	-481.51031	428.69290	163.89616	-523.91559	386.96713	177.68947	-642.94702	327.07861	207.49280	-594.06305	347.02588	168.84665	-732.37811	345.72696	164.25154	-443.46063	449.15744	147.00514	-450.45981	75.13869	144.85521	-806.17072	82.54008	142.73494	-799.91193	457.74753	145.15848	
